<svg width="13" height="6" viewBox="0 0 13 6" fill="none" xmlns="http://www.w3.org/2000/svg">
<path d="M0.625 2.70484C0.541667 2.77556 0.5 2.87279 0.5 2.99654C0.5 3.12029 0.541667 3.22636 0.625 3.31476C0.729167 3.38547 0.854167 3.42083 1 3.42083H10.7812L8.65625 5.25058C8.40625 5.44504 8.39583 5.64835 8.625 5.86049C8.875 6.05496 9.11458 6.04612 9.34375 5.83397L12.3438 3.28824C12.4063 3.25288 12.4479 3.20869 12.4688 3.15565C12.4896 3.10261 12.5 3.04958 12.5 2.99654C12.5 2.94351 12.4896 2.89047 12.4688 2.83743C12.4479 2.7844 12.4063 2.7402 12.3438 2.70484L9.34375 0.159108C9.11458 -0.0530361 8.875 -0.0530361 8.625 0.159108C8.39583 0.353574 8.40625 0.54804 8.65625 0.742506L10.7812 2.57225H1C0.854167 2.57225 0.729167 2.61645 0.625 2.70484Z" fill="#161A21"/>
</svg>
